#!OML:ASF F:\VICON\USERDATA\INSTALL\rory3\rory3.ASF
:FULLY-SPECIFIED
:DEGREES
37
root -0.21436841152653952 18.42074300796802 10.693269907005016 4.881178392952893 -2.6922893359030873 1.7737350419018756
lfemur 11.373011700787679 -6.7489247015154525 -29.42325794940173
ltibia 45.33622306545879
lfoot 27.519377587735555 -21.46593437012228
ltoes -9.211704100981152
rfemur -36.3553760705607 -0.12842355037413 25.068971543330214
rtibia 26.8721152268084
rfoot 7.185890542294395 -0.6181992713827489
rtoes -14.773788877337553
lowerback 13.899687934457662 -1.7402683551648805 -2.0390855586629337
upperback -1.1119483890953024 -2.5708601311729136 0.9800027463757789
thorax -8.945961283409826 -1.1070267398583815 2.785888235064328
lowerneck -20.326475511091395 -3.3048060020991636 -2.387460075953235
upperneck 13.674199978040509 -4.352478924066945 2.7248925677838978
head 7.68202994295444 -1.8970457460703711 0.7539098337037056
lclavicle -1.2793849286936308e-15 -1.0566019412024383e-15
lhumerus -38.509655962213365 -15.677158204435802 94.01321556107352
lradius 115.94290868386571
lwrist 36.48584950882104
lhand -24.77458757881677 -0.09628035303281557
lfingers 7.125020000000056
lthumb 1.7288197292940704 29.81654717553441
rclavicle -1.2793849286936308e-15 -1.0566019412024383e-15
rhumerus -65.55778823407448 4.246132396132687 -96.22279262281785
rradius 113.72866632322149
rwrist -16.343602132964897
rhand -19.79287269411217 33.01303651423144
rfingers 7.125020000000056
rthumb 6.537937274796141 12.61135921874829
38
root -0.23818437461117986 18.240468500799537 10.836727472788738 4.175079798763979 -3.2263549367636974 1.5425421177223169
lfemur 9.42767286549677 -5.60680267289895 -28.463953660709418
ltibia 52.47491052408646
lfoot 26.024032929247007 -21.08515110761877
ltoes -7.433929437046965
rfemur -36.008073210521935 -0.33430026533840973 25.711843965344478
rtibia 30.135164422939734
rfoot 5.537766604896502 0.3611553456308787
rtoes -9.083499831074906
lowerback 14.379632385090105 -1.5220077667576257 -1.864211154681526
upperback -0.8832936968650171 -2.250170495899562 0.9585846088477494
thorax -8.989177874799779 -0.9651667819779334 2.5462069539457173
lowerneck -20.10390508453486 -3.3533158851477167 -2.4715036190131814
upperneck 13.61416538454317 -4.364816268544027 2.5067212158371834
head 7.612410943594128 -1.930857962845815 0.6954270890640201
lclavicle -1.5964881929873085e-15 -1.302135917509123e-15
lhumerus -39.64642396018917 -15.178840972994559 94.31519810919994
lradius 113.43643087469368
lwrist 36.41525054347049
lhand -25.065832982041343 -0.7010776683577724
lfingers 7.125020000000055
lthumb 1.4475452357471725 29.210495944665197
rclavicle -1.5964881929873085e-15 -1.302135917509123e-15
rhumerus -64.41076890508576 3.735224089209078 -96.44411939866302
rradius 111.79784079250982
rwrist -16.559390078603748
rhand -19.981154852478518 32.65254691771373
rfingers 7.125020000000055
rthumb 6.356236766402764 12.235365290124058
39
root -0.23809992211684333 18.036668832838753 12.057299428306164 3.5264357707394276 -3.811823293747261 1.1381036740209733
lfemur 7.5902055278835086 -3.6317871827737394 -26.526756942027358
ltibia 61.69994361675201
lfoot 25.36541821562106 -20.00052261274608
ltoes -5.2699566119007395
rfemur -34.73486016746944 0.18492119142657115 26.86789044939877
rtibia 35.30235866000311
rfoot 2.8944468187185897 1.4608356036078973
rtoes -1.9480433623376596
lowerback 15.042991355780043 -1.2083226603956665 -1.3887442349716055
upperback -0.6700898184104798 -1.7460093710249462 1.120723636253912
thorax -9.067685616789642 -0.7410066614382013 2.4201756354122206
lowerneck -19.828196534401293 -3.343693178741155 -2.4597364358338507
upperneck 13.751400208625919 -4.30803258915634 2.30977866049377
head 7.600099731149351 -1.9349782147850076 0.6322805874964657
lclavicle -1.1629543171523452e-15 -9.664493893388244e-16
lhumerus -40.505369969551154 -14.107645929403606 95.02177236475211
lradius 112.27621787367258
lwrist 36.65175316512389
lhand -25.248140793094432 -0.665536225008104
lfingers 7.125020000000056
lthumb 1.2714796697704946 29.24593387153091
rclavicle -1.1629543171523452e-15 -9.664493893388244e-16
rhumerus -62.38746433232065 4.281145338599044 -96.4827174355965
rradius 111.54041267583517
rwrist -16.353246363266148
rhand -20.088875486111977 32.59038595066806
rfingers 7.125020000000056
rthumb 6.252239597897869 12.119274870634275
40
root -0.24079641343535085 17.78705404576039 12.743013936476377 2.8643731239253802 -4.561993618487534 0.36012626184504315
lfemur 4.524706207402993 -1.2975915456923532 -23.94333273686481
ltibia 71.20240702884583
lfoot 23.49092960672756 -18.325761702891857
ltoes -3.4522696178273864
rfemur -33.78785328342588 1.1586008947834328 28.14702818096587
rtibia 41.26484393693968
rfoot -0.8516462364569244 1.8251994313593638
rtoes 4.789602462425697
lowerback 15.786129151529584 -0.8767853742922694 -0.7945626527154277
upperback -0.4901792599111751 -1.1777606996039132 1.3795908330624627
thorax -9.296433868645355 -0.48911552108968825 2.215481420844432
lowerneck -19.733660735946142 -3.311289952910958 -2.38768669339757
upperneck 13.88263126943269 -4.238271756126757 2.037645257471058
head 7.614595219233556 -1.9270819950800484 0.536742254983006
lclavicle -1.2136954989819622e-15 -1.0057384414263737e-15
lhumerus -41.80236907624739 -13.314554288608406 95.57901314205962
lradius 110.13361381975707
lwrist 36.507996611797736
lhand -25.36282854311844 -0.6363691465578274
lfingers 7.125020000000056
lthumb 1.1607552816939586 29.277681314624775
rclavicle -1.2136954989819622e-15 -1.0057384414263737e-15
rhumerus -60.16480779975862 4.788828723534442 -96.86341168534415
rradius 110.22724159901902
rwrist -16.673829452682817
rhand -20.20665339139905 32.43654569101594
rfingers 7.125020000000056
rthumb 6.138529124649767 11.736391500535827
41
root -0.2450172914006697 17.534991970241634 13.331411354831712 2.547038946913857 -5.102692050932099 -0.6831523995221866
lfemur 0.7715873335542849 1.339028727510035 -20.589267965156136
ltibia 81.40311877048102
lfoot 21.514654355611246 -16.50476802935998
ltoes -2.04749966941393
rfemur -32.4067639230232 2.6986273182661114 29.87654607040598
rtibia 47.27953936022129
rfoot -5.501859186232794 0.39412579052593166
rtoes 9.834881552339745
lowerback 16.622848165277205 -0.5574925144837976 0.08210649683516724
upperback -0.34114673874521284 -0.5615111787859516 1.7869818274401328
thorax -9.570880934408482 -0.22394579309821627 2.0285188919128108
lowerneck -19.818819244908063 -3.2436358317148732 -2.230988846701722
upperneck 13.93800964639895 -4.140119981479013 1.814229765827074
head 7.6358012262769455 -1.8983742294215495 0.44524549661254337
lclavicle -9.985759435871869e-16 -8.391707583878197e-16
lhumerus -42.98421777239704 -12.391148712710008 96.19409845630656
lradius 108.87262650519392
lwrist 36.54853198185527
lhand -25.39732481128911 -0.15358899122216307
lfingers 7.125020000000057
lthumb 1.1274988459882092 29.76463136018912
rclavicle -9.985759435871869e-16 -8.391707583878197e-16
rhumerus -57.220540580824675 6.053184157563313 -97.11036908302138
rradius 109.82151384188231
rwrist -16.974279219352827
rhand -20.228604552908457 32.57485177505636
rfingers 7.125020000000057
rthumb 6.117339960127065 11.516019081988366
42
root -0.25611346325869916 17.29588283821799 13.674143925562653 2.4315380768428922 -5.340922147630977 -1.9351057249152381
lfemur -4.043907041588735 3.7311054978302973 -17.084907059114002
ltibia 90.7505322210464
lfoot 18.697515442452072 -14.724343991407153
ltoes -0.6152936573054921
rfemur -30.811656149140237 4.3403546068110295 31.680528378606898
rtibia 51.78879585711528
rfoot -10.664498850374118 -2.950010392985005
rtoes 11.794378868263292
lowerback 17.357564705178326 -0.3237044538981796 1.0301414918201963
upperback -0.23550360767035639 -0.030825935558452255 2.2260008751755276
thorax -9.862335826756675 -0.003240118829988703 1.7935615702009744
lowerneck -20.121598244613388 -3.2064474106412697 -2.0397530618719473
upperneck 13.750266955158537 -4.102808833481283 1.6315393531942095
head 7.615378229180853 -1.8874490870449223 0.3562623583553397
lclavicle -1.0302709579620641e-15 -8.637123082878047e-16
lhumerus -44.335595004146185 -11.560885625673128 96.58858677112137
lradius 107.47870758703154
lwrist 36.38332548023358
lhand -25.25190742730819 0.5636426388535334
lfingers 7.125020000000057
lthumb 1.2679648553576566 30.484989597593746
rclavicle -1.0302709579620641e-15 -8.637123082878047e-16
rhumerus -54.04002743735328 7.25170984732646 -97.37770630108261
rradius 109.08958208939339
rwrist -17.26090153902118
rhand -20.265010601876146 32.54502399537859
rfingers 7.125020000000057
rthumb 6.082318222736509 11.163177788210026
43
root -0.26332635967249346 17.102082486970094 13.993187406869737 2.5613395889733637 -5.1595491851549244 -3.1637227142843036
lfemur -9.581315222609607 5.663472926304296 -13.849335480298176
ltibia 98.67145499895115
lfoot 15.535332564109787 -13.020679107429189
ltoes 0.4075960769767306
rfemur -28.67195226784648 5.787504035627656 33.474818401625356
rtibia 54.92707474965136
rfoot -15.736899255000365 -7.578568209112004
rtoes 10.745550786325989
lowerback 17.923095631594265 -0.14026537862085042 1.9862163254020047
upperback -0.16960098511088045 0.43692690120990074 2.6449846435939524
thorax -10.094500515847331 0.18500205704838246 1.5469525913017774
lowerneck -20.526702378812853 -3.2355887272915393 -1.8543756103783422
upperneck 13.402512958201932 -4.170145589873395 1.5724823111199027
head 7.566890575893061 -1.9145973633141238 0.29769686688855324
lclavicle -1.0217566779638436e-15 -8.57119682535303e-16
lhumerus -45.83755301282639 -10.95171907959473 96.88973086486394
lradius 106.4422464099121
lwrist 36.141903222004984
lhand -24.999896951386837 1.4546706023994513
lfingers 7.125020000000057
lthumb 1.5113349140767462 31.377158978419644
rclavicle -1.0217566779638436e-15 -8.57119682535303e-16
rhumerus -50.46192058455965 8.59585660729336 -97.49620876092463
rradius 108.77533694804045
rwrist -17.46290609192588
rhand -20.255491975719895 32.56188757437808
rfingers 7.125020000000057
rthumb 6.0917335637099015 10.750330151258183
44
root -0.2524776481901436 16.976415706671403 14.613346817205754 2.9018571361935845 -4.521817712101946 -4.152577451406613
lfemur -15.705023416773447 6.994308098281289 -11.32332367402406
ltibia 104.92001609350343
lfoot 12.29371446704716 -11.311665231063103
ltoes 0.9411986705277533
rfemur -25.592632863606276 6.832237952234613 35.07629689650875
rtibia 56.77571600724758
rfoot -20.17861351290043 -12.27044273015522
rtoes 7.253048909393674
lowerback 18.25017966736409 0.042903411581945494 2.866259615019776
upperback -0.13766523221266835 0.8788042405979741 2.9586123253942103
thorax -10.205331392570288 0.36169893877022424 1.2788799118966776
lowerneck -20.898336035381476 -3.365903916395643 -1.7287578363115845
upperneck 13.012766736474298 -4.377837805093997 1.6806141427404118
head 7.510246604686517 -2.0000883451354103 0.28802505854707033
lclavicle -8.103131580406835e-16 -6.933983554510666e-16
lhumerus -47.554508952025145 -10.52604288686939 97.19118950387838
lradius 106.12987092602364
lwrist 36.001950864087355
lhand -24.622121122928213 2.3268568727315184
lfingers 7.125020000000057
lthumb 1.8761064315839373 32.24627683032665
rclavicle -8.103131580406835e-16 -6.933983554510666e-16
rhumerus -46.55420561561431 10.069233543107334 -97.39820610223275
rradius 109.36563143274518
rwrist -17.498650609905155
rhand -20.16919816573901 32.77394659285529
rfingers 7.125020000000057
rthumb 6.175243774215153 10.43997394427177
